<?xml version="1.0" encoding="utf-8"?>
<!-- Generator: Adobe Illustrator 18.0.0, SVG Export Plug-In . SVG Version: 6.00 Build 0)  -->
<!DOCTYPE svg PUBLIC "-//W3C//DTD SVG 1.1//EN" "http://www.w3.org/Graphics/SVG/1.1/DTD/svg11.dtd">
<svg version="1.1" xmlns="http://www.w3.org/2000/svg" xmlns:xlink="http://www.w3.org/1999/xlink" x="0px" y="0px"
	 viewBox="0 0 1440 718" enable-background="new 0 0 1440 718" xml:space="preserve">
<g id="Layer_2">
</g>
<g id="Layer_1">
	<g opacity="0.25">
		<path fill="#484848" stroke="#484848" d="M-16-108L-55,22l161-2L-16-108z"/>
		<path fill="#525252" stroke="#525252" d="M-16-108L106,20l13-99L-16-108z"/>
		<path fill="#6E6E6E" stroke="#6E6E6E" d="M-16-108l135,29l398-29H-16z"/>
		<path fill="#9F9F9F" stroke="#9F9F9F" d="M-16-108h533l767-16L-16-108z"/>
		<path fill="#656565" stroke="#656565" d="M119-79l-13,99l140-67L119-79z"/>
		<path fill="#818181" stroke="#818181" d="M119-79l127,32l271-61L119-79z"/>
		<path fill="#717171" stroke="#717171" d="M246-47L106,20l102,32L246-47z"/>
		<path fill="#818181" stroke="#818181" d="M246-47l-38,99l123-30L246-47z"/>
		<path fill="#868686" stroke="#868686" d="M246-47l85,69l56-41L246-47z"/>
		<path fill="#8C8C8C" stroke="#8C8C8C" d="M246-47l141,28l130-89L246-47z"/>
		<path fill="#999999" stroke="#999999" d="M387-19l-56,41l154,26L387-19z"/>
		<path fill="#979797" stroke="#979797" d="M387-19l98,67l32-156L387-19z"/>
		<path fill="#A1A1A1" stroke="#A1A1A1" d="M517-108L485,48l174-72L517-108z"/>
		<path fill="#989898" stroke="#989898" d="M517-108l142,84l161-40L517-108z"/>
		<path fill="#8C8C8C" stroke="#8C8C8C" d="M517-108l303,44l129-40L517-108z"/>
		<path fill="#757575" stroke="#757575" d="M517-108l432,4l335-20L517-108z"/>
		<path fill="#BBBBBB" stroke="#BBBBBB" d="M659-24L485,48l182,84L659-24z"/>
		<path fill="#A9A9A9" stroke="#A9A9A9" d="M659-24l8,156L875,31L659-24z"/>
		<path fill="#8C8C8C" stroke="#8C8C8C" d="M659-24l216,55l-55-95L659-24z"/>
		<path fill="#7D7D7D" stroke="#7D7D7D" d="M820-64l55,95l74-135L820-64z"/>
		<path fill="#767676" stroke="#767676" d="M949-104L875,31l74,42V-104z"/>
		<path fill="#757575" stroke="#757575" d="M949-104V73l125,40L949-104z"/>
		<path fill="#575757" stroke="#575757" d="M949-104l125,217l108-196L949-104z"/>
		<path fill="#464646" stroke="#464646" d="M949-104l233,21l102-41L949-104z"/>
		<path fill="#505050" stroke="#505050" d="M1182-83l-108,196l199-50L1182-83z"/>
		<path fill="#2F2F2F" stroke="#2F2F2F" d="M1182-83l91,146l11-187L1182-83z"/>
		<path fill="#232323" stroke="#232323" d="M1284-124l-11,187l132-166L1284-124z"/>
		<path fill="#232323" stroke="#232323" d="M1284-124l121,21l116,13L1284-124z"/>
		<path fill="#2C2C2C" stroke="#2C2C2C" d="M1405-103L1273,63l209,13L1405-103z"/>
		<path fill="#242424" stroke="#242424" d="M1405-103l77,179l39-166L1405-103z"/>
		<path fill="#2E2E2E" stroke="#2E2E2E" d="M1521-90l-39,166l49-15L1521-90z"/>
		<path fill="#747474" stroke="#747474" d="M1521-90l10,151l103,614L1521-90z"/>
		<path fill="#949494" stroke="#949494" d="M-55,22l-56,410l56-200V22z"/>
		<path fill="#717171" stroke="#717171" d="M-55,22v210L106,20L-55,22z"/>
		<path fill="#9A9A9A" stroke="#9A9A9A" d="M106,20L-55,232l182,22L106,20z"/>
		<path fill="#989898" stroke="#989898" d="M106,20l21,234l81-202L106,20z"/>
		<path fill="#B3B3B3" stroke="#B3B3B3" d="M208,52l-81,202l44,1L208,52z"/>
		<path fill="#C3C3C3" stroke="#C3C3C3" d="M208,52l-37,203l242-88L208,52z"/>
		<path fill="#ABABAB" stroke="#ABABAB" d="M208,52l205,115L331,22L208,52z"/>
		<path fill="#B6B6B6" stroke="#B6B6B6" d="M331,22l82,145l72-119L331,22z"/>
		<path fill="#DADADA" stroke="#DADADA" d="M485,48l-72,119l72,45V48z"/>
		<path fill="#DFDFDF" stroke="#DFDFDF" d="M485,48v164l182-80L485,48z"/>
		<path fill="#F3F3F3" stroke="#F3F3F3" d="M667,132l-182,80l165,129L667,132z"/>
		<path fill="#E8E8E8" stroke="#E8E8E8" d="M667,132l-17,209l60-165L667,132z"/>
		<path fill="#C5C5C5" stroke="#C5C5C5" d="M667,132l43,44L875,31L667,132z"/>
		<path fill="#C8C8C8" stroke="#C8C8C8" d="M875,31L710,176l95,11L875,31z"/>
		<path fill="#AEAEAE" stroke="#AEAEAE" d="M875,31l-70,156L949,73L875,31z"/>
		<path fill="#C2C2C2" stroke="#C2C2C2" d="M949,73L805,187l164,75L949,73z"/>
		<path fill="#ABABAB" stroke="#ABABAB" d="M949,73l20,189l105-149L949,73z"/>
		<path fill="#A8A8A8" stroke="#A8A8A8" d="M1074,113L969,262l142-24L1074,113z"/>
		<path fill="#8F8F8F" stroke="#8F8F8F" d="M1074,113l37,125l147-60L1074,113z"/>
		<path fill="#737373" stroke="#737373" d="M1074,113l184,65l15-115L1074,113z"/>
		<path fill="#696969" stroke="#696969" d="M1273,63l-15,115l199,18L1273,63z"/>
		<path fill="#5A5A5A" stroke="#5A5A5A" d="M1273,63l184,133l25-120L1273,63z"/>
		<path fill="#6B6B6B" stroke="#6B6B6B" d="M1482,76l-25,120l72-5L1482,76z"/>
		<path fill="#595959" stroke="#595959" d="M1482,76l47,115l2-130L1482,76z"/>
		<path fill="#7D7D7D" stroke="#7D7D7D" d="M1531,61l-2,130l105,484L1531,61z"/>
		<path fill="#969696" stroke="#969696" d="M-55,232l-56,200l221-15L-55,232z"/>
		<path fill="#ABABAB" stroke="#ABABAB" d="M-55,232l165,185l17-163L-55,232z"/>
		<path fill="#BABABA" stroke="#BABABA" d="M127,254l-17,163l61-162L127,254z"/>
		<path fill="#BEBEBE" stroke="#BEBEBE" d="M171,255l-61,162l141-51L171,255z"/>
		<path fill="#D6D6D6" stroke="#D6D6D6" d="M171,255l80,111l162-199L171,255z"/>
		<path fill="#E4E4E4" stroke="#E4E4E4" d="M413,167L251,366l162-13V167z"/>
		<path fill="#E8E8E8" stroke="#E8E8E8" d="M413,167v186l72-141L413,167z"/>
		<path fill="#F1F1F1" stroke="#F1F1F1" d="M485,212l-72,141l134,13L485,212z"/>
		<path fill="#FBFBFB" stroke="#FBFBFB" d="M485,212l62,154l103-25L485,212z"/>
		<path fill="#EDEDED" stroke="#EDEDED" d="M710,176l-60,165l156-13L710,176z"/>
		<path fill="#DFDFDF" stroke="#DFDFDF" d="M710,176l96,152l-1-141L710,176z"/>
		<path fill="#D9D9D9" stroke="#D9D9D9" d="M805,187l1,141l163-66L805,187z"/>
		<path fill="#CFCFCF" stroke="#CFCFCF" d="M969,262l-163,66l169,21L969,262z"/>
		<path fill="#BBBBBB" stroke="#BBBBBB" d="M969,262l6,87l104-3L969,262z"/>
		<path fill="#B4B4B4" stroke="#B4B4B4" d="M969,262l110,84l32-108L969,262z"/>
		<path fill="#9C9C9C" stroke="#9C9C9C" d="M1111,238l-32,108l164,79L1111,238z"/>
		<path fill="#939393" stroke="#939393" d="M1111,238l132,187l15-247L1111,238z"/>
		<path fill="#7D7D7D" stroke="#7D7D7D" d="M1258,178l-15,247l125-28L1258,178z"/>
		<path fill="#7B7B7B" stroke="#7B7B7B" d="M1258,178l110,219l89-201L1258,178z"/>
		<path fill="#7B7B7B" stroke="#7B7B7B" d="M1457,196l-89,201h163L1457,196z"/>
		<path fill="#7C7C7C" stroke="#7C7C7C" d="M1457,196l74,201l-2-206L1457,196z"/>
		<path fill="#707070" stroke="#707070" d="M1529,191l2,206l103,278L1529,191z"/>
		<path fill="#212121" stroke="#212121" d="M-111,432l32,423l47-214L-111,432z"/>
		<path fill="#5E5E5E" stroke="#5E5E5E" d="M-111,432l79,209l15-144L-111,432z"/>
		<path fill="#868686" stroke="#868686" d="M-111,432l94,65l127-80L-111,432z"/>
		<path fill="#8C8C8C" stroke="#8C8C8C" d="M110,417l-127,80l147-8L110,417z"/>
		<path fill="#B2B2B2" stroke="#B2B2B2" d="M110,417l20,72l121-123L110,417z"/>
		<path fill="#B0B0B0" stroke="#B0B0B0" d="M251,366L130,489l150,29L251,366z"/>
		<path fill="#D1D1D1" stroke="#D1D1D1" d="M251,366l29,152l133-165L251,366z"/>
		<path fill="#B7B7B7" stroke="#B7B7B7" d="M413,353L280,518l45,60L413,353z"/>
		<path fill="#ABABAB" stroke="#ABABAB" d="M413,353l-88,225l98,49L413,353z"/>
		<path fill="#B7B7B7" stroke="#B7B7B7" d="M413,353l10,274l133-67L413,353z"/>
		<path fill="#E7E7E7" stroke="#E7E7E7" d="M413,353l143,207l-9-194L413,353z"/>
		<path fill="#D7D7D7" stroke="#D7D7D7" d="M547,366l9,194l103-64L547,366z"/>
		<path fill="#EDEDED" stroke="#EDEDED" d="M547,366l112,130l-9-155L547,366z"/>
		<path fill="#E4E4E4" stroke="#E4E4E4" d="M650,341l9,155l147-168L650,341z"/>
		<path fill="#C7C7C7" stroke="#C7C7C7" d="M806,328L659,496l161,78L806,328z"/>
		<path fill="#CDCDCD" stroke="#CDCDCD" d="M806,328l14,246l155-225L806,328z"/>
		<path fill="#A2A2A2" stroke="#A2A2A2" d="M975,349L820,574l206-51L975,349z"/>
		<path fill="#ADADAD" stroke="#ADADAD" d="M975,349l51,174l53-177L975,349z"/>
		<path fill="#858585" stroke="#858585" d="M1079,346l-53,177l151,35L1079,346z"/>
		<path fill="#868686" stroke="#868686" d="M1079,346l98,212l66-133L1079,346z"/>
		<path fill="#575757" stroke="#575757" d="M1243,425l-66,133l115-25L1243,425z"/>
		<path fill="#656565" stroke="#656565" d="M1243,425l49,108l76-136L1243,425z"/>
		<path fill="#5D5D5D" stroke="#5D5D5D" d="M1368,397l-76,136l182-65L1368,397z"/>
		<path fill="#707070" stroke="#707070" d="M1368,397l106,71l57-71H1368z"/>
		<path fill="#646464" stroke="#646464" d="M1531,397l-57,71l43,25L1531,397z"/>
		<path fill="#414141" stroke="#414141" d="M1531,397l-14,96l117,182L1531,397z"/>
		<path fill="#414141" stroke="#414141" d="M-17,497l-15,144l166,10L-17,497z"/>
		<path fill="#666666" stroke="#666666" d="M-17,497l151,154l-4-162L-17,497z"/>
		<path fill="#777777" stroke="#777777" d="M130,489l4,162l146-133L130,489z"/>
		<path fill="#5F5F5F" stroke="#5F5F5F" d="M280,518L134,651l107,27L280,518z"/>
		<path fill="#797979" stroke="#797979" d="M280,518l-39,160l84-100L280,518z"/>
		<path fill="#6D6D6D" stroke="#6D6D6D" d="M325,578l-84,100l182-51L325,578z"/>
		<path fill="#7B7B7B" stroke="#7B7B7B" d="M556,560l-133,67l59,99L556,560z"/>
		<path fill="#818181" stroke="#818181" d="M556,560l-74,166l239-76L556,560z"/>
		<path fill="#A0A0A0" stroke="#A0A0A0" d="M556,560l165,90l-62-154L556,560z"/>
		<path fill="#939393" stroke="#939393" d="M659,496l62,154l99-76L659,496z"/>
		<path fill="#707070" stroke="#707070" d="M820,574l-99,76l83,22L820,574z"/>
		<path fill="#646464" stroke="#646464" d="M820,574l-16,98l174-15L820,574z"/>
		<path fill="#6E6E6E" stroke="#6E6E6E" d="M820,574l158,83l48-134L820,574z"/>
		<path fill="#4A4A4A" stroke="#4A4A4A" d="M1026,523l-48,134l96,22L1026,523z"/>
		<path fill="#4D4D4D" stroke="#4D4D4D" d="M1026,523l48,156l103-121L1026,523z"/>
		<path fill="#222222" stroke="#222222" d="M1177,558l-103,121l198-5L1177,558z"/>
		<path fill="#2B2B2B" stroke="#2B2B2B" d="M1177,558l95,116l20-141L1177,558z"/>
		<path fill="#0B0B0B" stroke="#0B0B0B" d="M1292,533l-20,141l151,3L1292,533z"/>
		<path fill="#2E2E2E" stroke="#2E2E2E" d="M1292,533l131,144l51-209L1292,533z"/>
		<path fill="#353535" stroke="#353535" d="M1474,468l-51,209l94-184L1474,468z"/>
		<path fill="#121212" stroke="#121212" d="M1517,493l-94,184l211-2L1517,493z"/>
		<path fill="#222222" stroke="#222222" d="M-32,641l-47,214l211-45L-32,641z"/>
		<path fill="#313131" stroke="#313131" d="M-32,641l164,169l2-159L-32,641z"/>
		<path fill="#444444" stroke="#444444" d="M134,651l-2,159l109-132L134,651z"/>
		<path fill="#4D4D4D" stroke="#4D4D4D" d="M241,678L132,810l132-30L241,678z"/>
		<path fill="#5F5F5F" stroke="#5F5F5F" d="M241,678l23,102l159-153L241,678z"/>
		<path fill="#696969" stroke="#696969" d="M423,627L264,780l218-54L423,627z"/>
		<path fill="#676767" stroke="#676767" d="M482,726l-218,54l103,97L482,726z"/>
		<path fill="#747474" stroke="#747474" d="M482,726L367,877l215-52L482,726z"/>
		<path fill="#7D7D7D" stroke="#7D7D7D" d="M482,726l100,99l139-175L482,726z"/>
		<path fill="#737373" stroke="#737373" d="M721,650L582,825l151-41L721,650z"/>
		<path fill="#6B6B6B" stroke="#6B6B6B" d="M721,650l12,134l71-112L721,650z"/>
		<path fill="#656565" stroke="#656565" d="M804,672l-71,112l121,2L804,672z"/>
		<path fill="#5A5A5A" stroke="#5A5A5A" d="M804,672l50,114l124-129L804,672z"/>
		<path fill="#4C4C4C" stroke="#4C4C4C" d="M978,657L854,786l145,98L978,657z"/>
		<path fill="#3D3D3D" stroke="#3D3D3D" d="M978,657l21,227l77-29L978,657z"/>
		<path fill="#373737" stroke="#373737" d="M978,657l98,198l-2-176L978,657z"/>
		<path fill="#232323" stroke="#232323" d="M1074,679l2,176l196-181L1074,679z"/>
		<path fill="#121212" stroke="#121212" d="M1272,674l-196,181l234-46L1272,674z"/>
		<path stroke="#000000" d="M1272,674l38,135l113-132L1272,674z"/>
		<path stroke="#000000" d="M1423,677l-113,132l66,11L1423,677z"/>
		<path stroke="#000000" d="M1423,677l-47,143l203,48L1423,677z"/>
		<path stroke="#000000" d="M1423,677l156,191l55-193L1423,677z"/>
		<path fill="#3D3D3D" stroke="#3D3D3D" d="M-79,855l446,22l-235-67L-79,855z"/>
		<path fill="#565656" stroke="#565656" d="M132,810l235,67l-103-97L132,810z"/>
		<path fill="#777777" stroke="#777777" d="M367,877l632,7l-417-59L367,877z"/>
		<path fill="#686868" stroke="#686868" d="M582,825l417,59L733,784L582,825z"/>
		<path fill="#5D5D5D" stroke="#5D5D5D" d="M733,784l266,100l-145-98L733,784z"/>
		<path fill="#121212" stroke="#121212" d="M999,884l580-16l-503-13L999,884z"/>
		<path stroke="#000000" d="M1076,855l503,13l-203-48L1076,855z"/>
		<path fill="#0B0B0B" stroke="#0B0B0B" d="M1076,855l300-35l-66-11L1076,855z"/>
	</g>
</g>
</svg>
